<svg width="127" height="60" viewBox="0 0 127 60" fill="none" xmlns="http://www.w3.org/2000/svg">
<g clip-path="url(#clip0_470_620)">
<path d="M47.0981 53.1029C46.3575 53.4737 44.8765 53.7703 43.6916 53.7703C40.3593 53.7703 38.3599 51.397 38.3599 48.1338C38.3599 44.9446 40.3593 42.423 43.6176 42.423C44.7284 42.423 45.8392 42.5713 47.024 43.2388L47.2462 40.5689C46.1354 40.1239 44.7284 39.9014 43.6916 39.9014C38.3599 39.9014 35.1016 42.9422 35.1016 48.2821C35.1016 53.622 38.6561 56.1436 43.6916 56.1436C44.8765 56.1436 46.1354 55.9211 47.2462 55.6245L47.0981 53.1029Z" fill="#D43F27"/>
<path fill-rule="evenodd" clip-rule="evenodd" d="M52.2817 48.0596C52.2817 45.3155 53.5406 42.4231 56.7249 42.4231C59.8351 42.4231 61.168 45.2413 61.168 48.0596C61.168 50.8779 59.9832 53.7704 56.7249 53.7704C53.4666 53.7704 52.2817 50.9521 52.2817 48.0596ZM49.0234 48.0596C49.0234 52.8804 51.6893 56.2179 56.7249 56.2179C61.6864 56.2179 64.4264 52.8062 64.4264 48.0596C64.4264 43.313 61.6864 39.9756 56.7249 39.9756C51.6893 39.9756 49.0234 43.2389 49.0234 48.0596Z" fill="#D43F27"/>
<path fill-rule="evenodd" clip-rule="evenodd" d="M70.1999 42.7189H71.9771C74.643 42.7189 77.1608 44.6473 77.1608 48.133C77.1608 51.5447 74.643 53.5471 71.9771 53.5471H70.1999V42.7189ZM67.0156 55.9946H71.3107C76.1241 55.9946 80.3451 54.363 80.3451 48.133C80.3451 41.9031 76.1241 40.2715 71.3107 40.2715H67.0156V55.9946Z" fill="#D43F27"/>
<path d="M86.196 40.2715H83.0117V55.9946H86.196V40.2715Z" fill="#D43F27"/>
<path fill-rule="evenodd" clip-rule="evenodd" d="M88.5664 55.9946H91.7507V49.9872H93.0836C96.49 49.9872 99.1559 48.6522 99.1559 45.0181C99.1559 41.2356 96.0457 40.2715 92.6393 40.2715H88.6405V55.9946H88.5664ZM91.7507 42.7189H92.8615C94.4906 42.7189 95.8235 43.3864 95.8235 45.1664C95.8235 47.0206 94.4166 47.5397 92.8615 47.5397H91.7507V42.7189Z" fill="#D43F27"/>
<path d="M110.116 40.5689C109.005 40.1981 107.746 39.9756 106.339 39.9756C103.599 39.9756 100.859 41.2364 100.859 44.7964C100.859 49.9879 107.746 48.7271 107.746 51.7679C107.746 53.1771 106.117 53.7704 104.932 53.7704C103.673 53.7704 102.489 53.3996 101.378 52.8062L101.082 55.6245C102.637 55.9954 103.377 56.2179 105.08 56.2179C108.265 56.2179 111.005 54.8829 111.005 51.4713C111.005 46.2055 104.118 47.318 104.118 44.648C104.118 42.9422 105.525 42.4972 106.561 42.4972C107.672 42.4972 108.783 42.7197 109.746 43.1647L110.116 40.5689Z" fill="#D43F27"/>
<path fill-rule="evenodd" clip-rule="evenodd" d="M111.152 55.9946H114.411L115.818 52.3605H122.186L123.519 55.9946H127L120.853 40.2715H117.299L111.152 55.9946ZM121.223 49.913H116.632L118.928 43.4606H119.002L121.223 49.913Z" fill="#D43F27"/>
<path d="M5.92318 48.5043C5.92318 48.5043 8.95933 43.7577 11.4771 42.7193C13.9949 41.681 15.8462 41.1619 20.3634 41.1619C24.8806 41.1619 27.4725 41.3102 28.6573 41.1619C29.7681 41.0135 30.8789 40.7169 32.8783 39.6044C34.8777 38.4919 35.3961 37.6761 35.8404 38.1952C36.2847 38.6402 34.2112 43.7577 31.1751 46.131C28.213 48.4301 24.9547 48.4301 21.7704 48.3559C18.6602 48.2818 13.0322 47.9851 11.1809 48.1334C9.3296 48.2818 7.70044 49.5426 6.66371 50.0617C5.62697 50.5809 4.88645 51.0259 5.33076 49.9134C5.70102 48.6526 5.92318 48.5043 5.92318 48.5043Z" fill="#D43F27"/>
<path d="M1.70443 57.9232C1.70443 57.9232 4.74058 53.1766 7.25837 52.1383C9.77615 51.1 11.6275 50.5808 16.1447 50.5808C20.6619 50.5808 23.2537 50.7291 24.4385 50.5808C25.5493 50.4325 26.6601 50.1358 28.6595 49.0233C30.659 47.9108 31.1773 47.095 31.6216 47.6142C32.0659 48.0592 29.9925 53.1766 26.9563 55.5499C23.9942 57.849 20.7359 57.849 17.5517 57.7749C14.4415 57.7007 8.81347 57.404 6.96216 57.5524C5.11085 57.7007 3.48169 58.9615 2.44496 59.4807C1.40822 59.9998 0.667697 60.4448 1.11201 59.3324C1.55633 58.0715 1.70443 57.9232 1.70443 57.9232Z" fill="#D43F27"/>
<g opacity="0.6">
<mask id="mask0_470_620" style="mask-type:luminance" maskUnits="userSpaceOnUse" x="0" y="12" width="64" height="25">
<path d="M63.8332 12.8311H0V36.7124H63.8332V12.8311Z" fill="white"/>
</mask>
<g mask="url(#mask0_470_620)">
<path fill-rule="evenodd" clip-rule="evenodd" d="M43.765 26.4034C44.5055 26.4775 45.6163 26.5517 46.8012 26.5517C49.9114 29.2217 52.4292 32.6333 54.1324 36.6382H37.3224V26.7742L39.1738 25.5134C39.1738 25.5875 41.0991 26.255 43.765 26.4034ZM57.6869 23.5851C60.7971 27.3675 62.9446 31.8175 63.8332 36.7124H56.7982C55.3172 32.7816 53.0956 29.2958 50.2816 26.4775C52.7254 26.1067 55.3913 25.365 57.6869 23.5851ZM29.5469 18.3935L29.9172 18.6901C19.5499 19.506 10.8117 26.7742 7.10904 36.7124H0C2.07347 25.0684 11.5522 15.7235 23.9189 12.8311C24.4373 13.9435 25.4 15.3527 26.807 16.391L29.5469 18.3935ZM9.55277 36.7124C13.5516 27.5159 21.7714 21.1376 31.2501 20.9151V36.7124H9.55277Z" fill="#00594F"/>
</g>
</g>
<path d="M33.2495 36.6378H35.397V24.4005C36.2856 24.2522 37.2483 23.8813 38.285 23.288C38.7294 23.5105 44.3574 25.958 50.6518 24.6972C53.0215 24.2522 55.169 23.2138 56.502 21.7305C57.8349 20.2472 58.7235 18.8381 58.7235 18.8381C58.7235 18.8381 53.5399 17.0581 49.6891 16.8356C45.8384 16.5389 43.4687 18.0222 40.2845 20.3955C37.0262 22.6947 36.2116 22.9913 36.2116 22.9913L38.1369 18.3931C38.1369 18.3931 44.7276 14.6106 45.9865 10.6799C47.2454 6.74907 46.653 0 46.653 0C46.653 0 39.4699 5.19159 38.4332 6.67491C37.3964 8.15822 36.2116 9.4932 36.9521 13.3498C37.6926 17.1323 37.2483 17.2064 36.9521 17.7998C36.6559 18.3189 34.5824 22.9913 34.5824 22.9913C34.5824 22.9913 34.0641 20.4697 34.2862 17.7256C34.5824 14.9815 35.2489 12.6823 32.1387 8.45488C29.1025 4.15328 24.6594 0.815822 24.6594 0.815822C24.6594 0.815822 22.8081 5.85909 24.2891 9.34487C25.7702 12.8307 28.0658 14.8331 29.0285 15.4265C29.9912 16.0939 33.3976 19.1347 33.4716 19.8022C33.5457 20.4697 33.2495 36.6378 33.2495 36.6378Z" fill="#00594F"/>
</g>
<defs>
<clipPath id="clip0_470_620">
<rect width="127" height="60" fill="white"/>
</clipPath>
</defs>
</svg>
